<?xml version="1.0" encoding="UTF-8" standalone="no"?>
<svg
   xmlns:dc="http://purl.org/dc/elements/1.1/"
   xmlns:cc="http://creativecommons.org/ns#"
   xmlns:rdf="http://www.w3.org/1999/02/22-rdf-syntax-ns#"
   xmlns:svg="http://www.w3.org/2000/svg"
   xmlns="http://www.w3.org/2000/svg"
   xmlns:sodipodi="http://sodipodi.sourceforge.net/DTD/sodipodi-0.dtd"
   xmlns:inkscape="http://www.inkscape.org/namespaces/inkscape"
   inkscape:version="1.0 (4035a4f, 2020-05-01)"
   height="62.84"
   width="616.8739"
   sodipodi:docname="organizer-logo.svg"
   id="svg164"
   xml:space="preserve"
   viewBox="0 0 616.87393 62.840004"
   y="0px"
   x="0px"
   version="1.1"><metadata
   id="metadata170"><rdf:RDF><cc:Work
       rdf:about=""><dc:format>image/svg+xml</dc:format><dc:type
         rdf:resource="http://purl.org/dc/dcmitype/StillImage" /><dc:title></dc:title></cc:Work></rdf:RDF></metadata><defs
   id="defs168"><rect
   id="rect1676"
   height="124.71835"
   width="342.85867"
   y="-61.281284"
   x="203.71513" />
	
	
	
	
	

	
	
</defs><sodipodi:namedview
   inkscape:document-rotation="0"
   inkscape:current-layer="svg164"
   inkscape:window-maximized="0"
   inkscape:window-y="23"
   inkscape:window-x="0"
   inkscape:cy="130.00739"
   inkscape:cx="444.07179"
   inkscape:zoom="1.2115669"
   fit-margin-bottom="0"
   fit-margin-right="0"
   fit-margin-left="0"
   fit-margin-top="0"
   showgrid="false"
   id="namedview166"
   inkscape:window-height="1035"
   inkscape:window-width="1920"
   inkscape:pageshadow="2"
   inkscape:pageopacity="0"
   guidetolerance="10"
   gridtolerance="10"
   objecttolerance="10"
   borderopacity="1"
   bordercolor="#666666"
   pagecolor="#ffffff" />
<style
   id="style2"
   type="text/css">
	.st0{fill:#A7A9AC;}
	.st1{fill:#FFFFFF;stroke:#000000;stroke-miterlimit:10;}
	.st2{fill:#EA4435;}
	.st3{fill:#557BB7;}
	.st4{fill:#F6BD45;}
	.st5{fill:#0B9D57;}
	.st6{fill:#58595B;stroke:#58595B;stroke-width:3;stroke-miterlimit:10;}
	.st7{font-family:'ProductSans-Regular';}
	.st8{font-size:80px;}
	.st9{fill:#58595B;stroke:#58595B;stroke-miterlimit:10;}
	.st10{fill:#58595B;}
	.st11{fill:#58595B;stroke:#58595B;stroke-width:2;stroke-miterlimit:10;}
</style>

<g
   style="fill:#58595b;fill-opacity:0.79757082;stroke:none"
   transform="translate(-97.091023,-90.2172)"
   id="google">
	<g
   style="fill:#58595b;fill-opacity:0.79757082;stroke:none"
   id="g68">
		<g
   style="fill:#58595b;fill-opacity:0.79757082;stroke:none"
   id="g66">
			<g
   style="fill:#58595b;fill-opacity:0.79757082;stroke:none"
   id="g52">
				<path
   style="fill:#58595b;fill-opacity:0.79757082;stroke:none"
   inkscape:connector-curvature="0"
   id="path50"
   d="m 123.2,123.9 18.3,-10.6 c 4.3,-2.5 5.8,-8 3.3,-12.3 -2.5,-4.3 -8,-5.8 -12.3,-3.3 L 100.9,116 Z"
   class="st2" />
			</g>
			<g
   style="fill:#58595b;fill-opacity:0.79757082;stroke:none"
   id="g56">
				<path
   style="fill:#58595b;fill-opacity:0.79757082;stroke:none"
   inkscape:connector-curvature="0"
   id="path54"
   d="m 137.1,151.2 c 3.1,0 6.2,-1.6 7.8,-4.5 2.5,-4.3 1,-9.8 -3.3,-12.3 L 109.9,116 c -4.3,-2.5 -8.8,-1 -11.3,3.3 -2.5,4.3 -2,9.8 2.3,12.3 l 31.7,18.3 c 1.4,0.9 2.9,1.3 4.5,1.3 z"
   class="st3" />
			</g>
			<g
   style="fill:#58595b;fill-opacity:0.79757082;stroke:none"
   id="g60">
				<path
   style="fill:#58595b;fill-opacity:0.79757082;stroke:none"
   inkscape:connector-curvature="0"
   id="path58"
   d="m 168.6,151.2 c 1.5,0 3.1,-0.4 4.5,-1.2 l 32.7,-18.3 -23.1,-8.1 -18.6,10.8 c -4.3,2.5 -5.8,8 -3.3,12.3 1.6,2.8 4.7,4.5 7.8,4.5 z"
   class="st4" />
			</g>
			<g
   style="fill:#58595b;fill-opacity:0.79757082;stroke:none"
   id="g64">
				<path
   style="fill:#58595b;fill-opacity:0.79757082;stroke:none"
   inkscape:connector-curvature="0"
   id="path62"
   d="m 200.3,132.9 c 3.1,0 7.2,-1.6 8.8,-4.5 2.5,-4.3 1,-9.8 -3.3,-12.3 L 173.1,97.8 c -4.3,-2.5 -9.8,-1 -12.3,3.3 -2.5,4.3 -1,9.8 3.3,12.3 l 31.7,18.3 c 1.4,0.8 2.9,1.2 4.5,1.2 z"
   class="st5" />
			</g>
		</g>
	</g>
</g>
<path
   id="path174"
   style="font-style:normal;font-variant:normal;font-weight:normal;font-stretch:normal;font-size:80px;font-family:'Product Sans';-inkscape-font-specification:'Product Sans';fill:#58595b;stroke:none;stroke-width:3;stroke-miterlimit:10;fill-opacity:0.79757082"
   d="m 187.07248,33.74 q 0,12 -7.12,19.12 -8.08,8.48 -21.04,8.48 -12.4,0 -21.12,-8.56 -8.64,-8.64 -8.64,-21.36 0,-12.72 8.64,-21.28 8.72,-8.64 21.12,-8.64 6.16,0 11.76,2.4 5.6,2.4 8.96,6.4 l -5.04,5.04 q -5.68,-6.8 -15.68,-6.8 -9.04,0 -15.68,6.4 -6.56,6.32 -6.56,16.48 0,10.16 6.56,16.56 6.64,6.32 15.68,6.32 9.6,0 16,-6.4 4.16,-4.16 4.8,-11.6 h -20.8 v -6.88 h 27.76 q 0.4,2.24 0.4,4.32 z" /><path
   id="path176"
   style="font-style:normal;font-variant:normal;font-weight:normal;font-stretch:normal;font-size:80px;font-family:'Product Sans';-inkscape-font-specification:'Product Sans';fill:#58595b;stroke:none;stroke-width:3;stroke-miterlimit:10;fill-opacity:0.79757082"
   d="M 196.01498,60.06 V 2.78 h 17.52 q 13.2,0 21.12,8 7.92,7.92 7.92,20.64 0,12.72 -7.92,20.72 -7.92,7.92 -21.12,7.92 z m 7.36,-7.04 h 10.16 q 9.92,0 15.68,-5.68 5.84,-5.68 5.84,-15.92 0,-10.16 -5.84,-15.84 -5.76,-5.76 -15.68,-5.76 h -10.16 z" /><path
   id="path178"
   style="font-style:normal;font-variant:normal;font-weight:normal;font-stretch:normal;font-size:80px;font-family:'Product Sans';-inkscape-font-specification:'Product Sans';fill:#58595b;stroke:none;stroke-width:3;stroke-miterlimit:10;fill-opacity:0.79757082"
   d="m 306.44748,33.74 q 0,12 -7.12,19.12 -8.08,8.48 -21.04,8.48 -12.4,0 -21.12,-8.56 -8.64,-8.64 -8.64,-21.36 0,-12.72 8.64,-21.28 8.72,-8.64 21.12,-8.64 6.16,0 11.76,2.4 5.6,2.4 8.96,6.4 l -5.04,5.04 q -5.68,-6.8 -15.68,-6.8 -9.04,0 -15.68,6.4 -6.56,6.32 -6.56,16.48 0,10.16 6.56,16.56 6.64,6.32 15.68,6.32 9.6,0 16,-6.4 4.16,-4.16 4.8,-11.6 h -20.8 v -6.88 h 27.76 q 0.4,2.24 0.4,4.32 z" /><text
   transform="translate(139.27156,48.849362)"
   style="font-style:normal;font-weight:normal;font-size:80px;line-height:1.25;font-family:sans-serif;white-space:pre;shape-inside:url(#rect1676);fill:#58595b;fill-opacity:0.79757082;stroke:none;"
   id="text1674"
   xml:space="preserve"><tspan
     x="203.71484"
     y="12.032847"><tspan
       style="font-style:normal;font-variant:normal;font-weight:normal;font-stretch:normal;font-size:80px;font-family:'Product Sans';-inkscape-font-specification:'Product Sans';fill:#58595b;fill-opacity:0.797571;stroke:none">Sweden</tspan></tspan></text><g
   aria-label="Pisa"
   transform="matrix(0.99,0,0,1,318.44378,60.9462)"
   style="font-size:80px;font-family:ProductSans-Regular;fill:#58595b"
   id="text77" />


</svg>
