<?xml version="1.0" encoding="UTF-8" standalone="no"?>
<svg
   xmlns:dc="http://purl.org/dc/elements/1.1/"
   xmlns:cc="http://creativecommons.org/ns#"
   xmlns:rdf="http://www.w3.org/1999/02/22-rdf-syntax-ns#"
   xmlns:svg="http://www.w3.org/2000/svg"
   xmlns="http://www.w3.org/2000/svg"
   xmlns:sodipodi="http://sodipodi.sourceforge.net/DTD/sodipodi-0.dtd"
   xmlns:inkscape="http://www.inkscape.org/namespaces/inkscape"
   inkscape:version="1.0 (4035a4f, 2020-05-01)"
   sodipodi:docname="logo-monochrome.svg"
   version="1.1"
   height="28.46619"
   width="153.64195"
   id="Layer_4">
  <metadata
     id="metadata58">
    <rdf:RDF>
      <cc:Work
         rdf:about="">
        <dc:format>image/svg+xml</dc:format>
        <dc:type
           rdf:resource="http://purl.org/dc/dcmitype/StillImage" />
        <dc:title />
      </cc:Work>
    </rdf:RDF>
  </metadata>
  <defs
     id="defs56" />
  <sodipodi:namedview
     inkscape:document-rotation="0"
     inkscape:current-layer="g124"
     inkscape:window-maximized="1"
     inkscape:window-y="23"
     inkscape:window-x="0"
     inkscape:cy="2.9006205"
     inkscape:cx="107.32337"
     inkscape:zoom="5.4693943"
     fit-margin-bottom="0"
     fit-margin-right="0"
     fit-margin-left="0"
     fit-margin-top="0"
     showgrid="false"
     id="namedview54"
     inkscape:window-height="1035"
     inkscape:window-width="1920"
     inkscape:pageshadow="2"
     inkscape:pageopacity="0"
     guidetolerance="10"
     gridtolerance="10"
     objecttolerance="10"
     borderopacity="1"
     bordercolor="#666666"
     pagecolor="#ffffff" />
  <style
     id="style2">.st0{fill:none}.st5{opacity:.2;enable-background:new}.st13,.st5{fill:#fff}</style>
  <flowRoot
     transform="translate(4.5736312e-6)"
     style="font-style:normal;font-weight:normal;font-size:40px;line-height:1.25;font-family:sans-serif;letter-spacing:0px;word-spacing:0px;fill:#000000;fill-opacity:1;stroke:none"
     id="flowRoot3787"
     xml:space="preserve"><flowRegion
       id="flowRegion3789"><rect
         y="-339.82928"
         x="50.069588"
         height="161.76328"
         width="529.96729"
         id="rect3791" /></flowRegion><flowPara
       id="flowPara3793" /></flowRoot>
  <g
     transform="matrix(0.31615571,0,0,0.31615571,1.2161246e-6,0)"
     id="g124">
    <path
       style="fill:#000080;stroke-width:0.755132"
       inkscape:connector-curvature="0"
       id="path50"
       class="st13"
       d="M 175.70292,39.894902 V 2.0627761 h 11.55353 c 5.81451,0 10.49633,1.7368042 13.96994,5.2859258 3.47361,3.4736081 5.21042,8.0799151 5.21042,13.6678931 0,5.587979 -1.73681,10.194286 -5.21042,13.667894 -3.47361,3.473609 -8.15543,5.285926 -13.96994,5.285926 h -11.55353 z m 4.83285,-4.68182 h 6.72068 c 4.37976,0 7.85337,-1.283725 10.42082,-3.775661 2.56745,-2.491937 3.85118,-6.041059 3.85118,-10.496339 0,-4.45528 -1.28373,-8.004402 -3.85118,-10.496338 -2.56745,-2.4919363 -6.04106,-3.7756611 -10.42082,-3.7756611 h -6.72068 z m 41.83433,5.512465 c -3.92669,0 -7.09825,-1.283725 -9.51467,-3.926687 -2.41642,-2.642963 -3.70015,-5.890032 -3.70015,-9.892233 0,-3.775661 1.20821,-7.02273 3.54912,-9.741206 2.34091,-2.718476 5.43696,-4.077714 9.1371,-4.077714 3.85118,0 6.94722,1.283724 9.21262,3.775661 2.34091,2.491936 3.47361,5.814518 3.47361,10.043259 l -0.0755,0.906159 h -20.46408 c 0.15102,2.642963 0.98167,4.68182 2.64296,6.192084 1.58578,1.510265 3.47361,2.265397 5.66349,2.265397 3.47361,0 5.81452,-1.510265 7.09825,-4.45528 l 4.30425,1.812317 c -0.83065,2.038857 -2.2654,3.700148 -4.15323,5.059386 -1.96334,1.359238 -4.37976,2.038857 -7.17375,2.038857 z m 6.94721,-16.914962 c -0.0755,-1.510265 -0.75513,-2.869503 -2.03885,-4.228741 -1.28373,-1.359238 -3.09605,-2.038857 -5.58798,-2.038857 -1.81232,0 -3.32258,0.528593 -4.68182,1.661291 -1.35924,1.132698 -2.2654,2.642963 -2.71848,4.530793 h 15.02713 z m 15.4047,16.084317 -10.49634,-25.901037 h 5.28593 l 7.62683,20.086518 h 0.0755 l 7.70235,-20.086518 h 5.21041 l -10.57185,25.901037 z m 23.18256,0 h -4.83285 V 2.0627761 h 22.12538 v 4.68182 H 267.98008 V 19.204278 h 15.55573 v 4.530793 h -15.55573 v 16.159831 z m 31.9421,0.830645 c -3.92669,0 -7.09825,-1.283725 -9.51467,-3.926687 -2.41642,-2.642963 -3.70015,-5.890032 -3.70015,-9.892233 0,-3.775661 1.20821,-7.02273 3.54912,-9.741206 2.41643,-2.718476 5.43696,-4.077714 9.1371,-4.077714 3.85118,0 6.94722,1.283724 9.21262,3.775661 2.34091,2.491936 3.47361,5.814518 3.47361,10.043259 l -0.0755,0.906159 h -20.46408 c 0.15102,2.642963 0.98167,4.68182 2.64296,6.192084 1.58578,1.510265 3.47361,2.265397 5.66349,2.265397 3.47361,0 5.81452,-1.510265 7.09825,-4.45528 l 4.30425,1.812317 c -0.83065,2.038857 -2.2654,3.700148 -4.15323,5.059386 -2.03885,1.359238 -4.37976,2.038857 -7.17375,2.038857 z m 6.94721,-16.914962 c -0.0755,-1.510265 -0.75513,-2.869503 -2.03885,-4.228741 -1.28373,-1.359238 -3.09605,-2.038857 -5.58798,-2.038857 -1.81232,0 -3.32259,0.528593 -4.68182,1.661291 -1.35924,1.132698 -2.2654,2.642963 -2.71848,4.530793 h 15.02713 z m 18.04766,16.914962 c -2.8695,0 -5.28592,-0.679619 -7.17375,-2.11437 -1.88783,-1.434751 -3.24707,-3.171556 -4.15323,-5.285926 l 4.30425,-1.812317 c 1.35924,3.247068 3.70015,4.832846 7.02273,4.832846 1.51027,0 2.79399,-0.302053 3.70015,-0.981672 0.98167,-0.679619 1.43475,-1.585777 1.43475,-2.642963 0,-1.661291 -1.20821,-2.869502 -3.54912,-3.398095 l -5.21041,-1.283725 c -1.66129,-0.453079 -3.24707,-1.208211 -4.68182,-2.416423 -1.51027,-1.208211 -2.18988,-2.793989 -2.18988,-4.757333 0,-2.265397 0.98167,-4.153228 3.02052,-5.587979 2.03886,-1.434751 4.45528,-2.11437 7.24927,-2.11437 2.2654,0 4.30426,0.528592 6.11658,1.585778 1.81231,1.057185 3.09604,2.491936 3.85117,4.45528 l -4.22874,1.736804 c -0.98167,-2.265397 -2.94502,-3.473608 -5.89003,-3.473608 -1.43475,0 -2.64297,0.302053 -3.62464,0.906158 -0.98167,0.604106 -1.51026,1.434752 -1.51026,2.416424 0,1.510264 1.1327,2.491936 3.39809,3.020529 l 5.1349,1.208211 c 2.41643,0.528593 4.22874,1.510265 5.36144,2.945016 1.1327,1.359238 1.73681,2.945016 1.73681,4.68182 0,2.34091 -0.98168,4.228741 -2.86951,5.814518 -1.7368,1.510265 -4.22874,2.265397 -7.24927,2.265397 z m 24.84385,-0.377566 c -2.71847,0 -4.75733,-0.755132 -6.19208,-2.189883 -1.43475,-1.434752 -2.11437,-3.473609 -2.11437,-6.116572 v -13.59238 h -4.53079 v -4.455281 h 4.53079 V 6.0649771 h 4.83285 v 7.9288879 h 6.34311 v 4.455281 h -6.34311 V 31.66396 c 0,2.79399 1.13269,4.228741 3.4736,4.228741 0.90616,0 1.58578,-0.151027 2.18989,-0.45308 l 1.66129,4.153228 c -0.98167,0.528592 -2.2654,0.755132 -3.85118,0.755132 z"
       sodipodi:nodetypes="ccscssscccssssscccsssscccccscccsccsscccccccccccccsccccccccccssscscccccscccscssscccssscscscccssssccssscccscssssccccccccccssccscs" />
    <g
       id="g3785"
       transform="matrix(0.53177897,0,0,0.53177897,98.802508,10.673174)"
       style="fill:#000080">
      <g
         transform="translate(-185.7962,-3.6468644)"
         id="logo"
         style="fill:#000080">
        <g
           id="image2vector"
           style="fill:#000080">
          <path
             style="fill:#000080"
             inkscape:connector-curvature="0"
             id="path0"
             d="m 94.963578,0.91079664 c -3.064,0.90999996 -4.403,1.59599996 -14.185,7.26199996 -4.404,2.5510004 -11.875,6.8650004 -16.601,9.5860004 -8.036,4.627 -30.11,17.379 -41.592,24.027 -2.786,1.614 -5.642,3.299 -6.346,3.745 l -1.281,0.813 1.562,-0.249 c 6.108,-0.971 12.949,-0.321 14.825,1.409 0.204,0.189 0.673,0.343 1.041,0.343 0.369,0 0.729,0.144 0.801,0.321 0.11,0.273 2.771,1.832 11.303,6.623 0.773,0.434 2.795,1.608 4.492,2.608 1.697,1 3.349,1.973 3.671,2.161 0.842,0.492 7.723,4.444 9.571,5.496 0.859,0.489 2.269,1.293 3.134,1.785 l 1.571,0.895 1.554,-0.892 c 7.295,-4.194 18.275,-10.53 23.428,-13.521 3.438,-1.995 9.678002,-5.581 13.867002,-7.969 11.318,-6.453 14.998,-10.507 16.674,-18.369 3.377,-15.836 -12.203,-30.6140004 -27.489002,-26.07400036" />
          <path
             style="fill:#000080"
             inkscape:connector-curvature="0"
             id="path1"
             d="m 18.083578,45.893797 c -0.43,0.184 -1.337,0.348 -2.017,0.363 -1.952,0.043 -6.6640001,2.988 -9.7020001,6.064 -10.456,10.588 -7.656,28.083 5.6640001,35.396 2.586,1.42 7.807,4.424 25.196,14.496003 5.371,3.111 16.269,9.407 24.218,13.99 7.95,4.584 17.793,10.281 21.875,12.659 12.625,7.357 18.474002,8.239 27.099002,4.085 16.852,-8.116 16.663,-30.343 -0.341,-40.246003 -6.605,-3.846 -45.246002,-26.172 -48.047002,-27.76 -1.467,-0.832 -8.406,-4.814 -9.375,-5.381 -0.322,-0.188 -1.974,-1.161 -3.671,-2.161 -1.697,-1 -3.719,-2.174 -4.492,-2.608 -8.532,-4.791 -11.193,-6.35 -11.303,-6.623 -0.072,-0.177 -0.432,-0.321 -0.801,-0.321 -0.368,0 -0.837,-0.153 -1.041,-0.34 -1.694,-1.549 -10.826,-2.66 -13.262,-1.613" />
          <path
             style="fill:#000080"
             inkscape:connector-curvature="0"
             id="path2"
             d="m 173.00058,0.99179664 c -16.424,4.30099996 -22.22,24.47600036 -10.58,36.82800036 1.819,1.93 3.695,3.236 9.435,6.565 7.637,4.428 26.567,15.356 28.845,16.65 3.05,1.734 10.866,6.296 12.695,7.411 1.075,0.655 3.887,2.289 6.25,3.631 2.364,1.342 9.043,5.181 14.844,8.531 17.227,9.949 19.302,10.619 27.558,8.891 10.974,-2.296 18.761,-14.097 16.808,-25.472 -1.573,-9.16 -4.395,-11.882 -24.053,-23.195 -8.379,-4.822 -16.465,-9.493 -17.969,-10.381 -1.504,-0.887 -5.811,-3.383 -9.57,-5.544 -3.76,-2.162 -13.604,-7.846 -21.875,-12.631 -22.339,-12.92300036 -23.965,-13.4900004 -32.388,-11.28400036" />
          <path
             style="fill:#000080"
             inkscape:connector-curvature="0"
             id="path3"
             d="m 209.09258,69.630797 c -1.715,0.972 -7.689,4.402 -13.275,7.622 -5.586,3.22 -12.002,6.912 -14.257,8.204 -16.876,9.662 -19.551,11.613 -22.234,16.217003 -8.599,14.757 2.133,33.661 19.109,33.661 4.866,0 8.448,-1.218 14.843,-5.047 2.041,-1.222 5.205,-3.052 7.032,-4.066 3.81,-2.115 3.558,-1.971 7.421,-4.27 2.819,-1.678 5.177,-3.043 19.727,-11.42 3.652,-2.102 7.607,-4.384 8.789,-5.069 1.182,-0.685 6.367,-3.673 11.523,-6.640003 5.157,-2.967 10.031,-5.806 10.833,-6.31 0.801,-0.504 1.542,-0.916 1.646,-0.916 0.104,0 1.031,-0.545 2.059,-1.212 l 1.869,-1.211 -1.367,0.249 c -9.32,1.695 -11.091,1.144 -28.321,-8.81 -13.346,-7.71 -17.43,-10.054 -20.124,-11.551 l -2.155,-1.197 -3.118,1.766" />
        </g>
      </g>
    </g>
    <g
       transform="translate(38.168375,-56.674254)"
       id="g880">
      <path
         d="M 350.00755,141.24861 H 327.1804 v -4.81674 q 10.26175,-10.3141 13.14132,-13.45545 2.56543,-2.87957 3.45549,-4.34554 0.89005,-1.51832 0.89005,-3.71726 0,-2.2513 -1.78011,-3.97904 -1.78009,-1.72775 -4.76438,-1.72775 -2.7225,0 -4.39789,1.62303 -1.67538,1.57068 -2.14659,3.40313 l -4.39789,-1.7801 q 0.89005,-2.82721 3.71727,-5.34029 2.82721,-2.51308 7.32982,-2.51308 4.9738,0 8.16751,3.03664 3.1937,3.03664 3.1937,7.27746 0,5.23558 -5.70678,11.20415 l -10.47117,10.52352 h 16.5968 z"
         style="font-style:normal;font-variant:normal;font-weight:normal;font-stretch:normal;font-size:69.3333px;line-height:1.25;font-family:'Product Sans';-inkscape-font-specification:'Product Sans';letter-spacing:0px;word-spacing:0px;fill:#000080;fill-opacity:1;stroke:none;stroke-width:0.755132"
         id="path43"
         inkscape:connector-curvature="0" />
      <path
         d="m 379.40699,136.69365 q -3.97905,5.39265 -10.41882,5.39265 -6.43977,0 -10.41881,-5.39265 -3.97905,-5.39265 -3.97905,-13.35074 0,-8.01044 3.97905,-13.35074 3.97904,-5.39265 10.41881,-5.39265 6.43977,0 10.41882,5.39265 3.97904,5.3403 3.97904,13.35074 0,7.95809 -3.97904,13.35074 z m -10.41882,0.78534 q 4.29318,0 6.85862,-4.03141 2.61779,-4.03139 2.61779,-10.10467 0,-6.12563 -2.61779,-10.10468 -2.56544,-4.0314 -6.85862,-4.0314 -4.34554,0 -6.91097,4.0314 -2.56543,3.97905 -2.56543,10.10468 0,6.07328 2.56543,10.10467 2.56543,4.03141 6.91097,4.03141 z"
         style="font-style:normal;font-variant:normal;font-weight:normal;font-stretch:normal;font-size:69.3333px;line-height:1.25;font-family:'Product Sans';-inkscape-font-specification:'Product Sans';letter-spacing:0px;word-spacing:0px;fill:#000080;fill-opacity:1;stroke:none;stroke-width:0.755132"
         id="path45"
         inkscape:connector-curvature="0" />
      <path
         d="m 410.13496,141.24861 h -22.82715 v -4.81674 q 10.26175,-10.3141 13.14132,-13.45545 2.56543,-2.87957 3.45548,-4.34554 0.89005,-1.51832 0.89005,-3.71726 0,-2.2513 -1.7801,-3.97904 -1.7801,-1.72775 -4.76438,-1.72775 -2.7225,0 -4.39789,1.62303 -1.67539,1.57068 -2.14659,3.40313 l -4.39789,-1.7801 q 0.89005,-2.82721 3.71727,-5.34029 2.82721,-2.51308 7.32982,-2.51308 4.97379,0 8.16751,3.03664 3.1937,3.03664 3.1937,7.27746 0,5.23558 -5.70678,11.20415 l -10.47117,10.52352 h 16.5968 z"
         style="font-style:normal;font-variant:normal;font-weight:normal;font-stretch:normal;font-size:69.3333px;line-height:1.25;font-family:'Product Sans';-inkscape-font-specification:'Product Sans';letter-spacing:0px;word-spacing:0px;fill:#000080;fill-opacity:1;stroke:none;stroke-width:0.755132"
         id="path47"
         inkscape:connector-curvature="0" />
      <path
         d="m 439.53439,136.69365 q -3.97904,5.39265 -10.41881,5.39265 -6.43977,0 -10.41881,-5.39265 -3.97905,-5.39265 -3.97905,-13.35074 0,-8.01044 3.97905,-13.35074 3.97904,-5.39265 10.41881,-5.39265 6.43977,0 10.41881,5.39265 3.97905,5.3403 3.97905,13.35074 0,7.95809 -3.97905,13.35074 z m -10.41881,0.78534 q 4.29317,0 6.85862,-4.03141 2.61778,-4.03139 2.61778,-10.10467 0,-6.12563 -2.61778,-10.10468 -2.56545,-4.0314 -6.85862,-4.0314 -4.34554,0 -6.91097,4.0314 -2.56544,3.97905 -2.56544,10.10468 0,6.07328 2.56544,10.10467 2.56543,4.03141 6.91097,4.03141 z"
         style="font-style:normal;font-variant:normal;font-weight:normal;font-stretch:normal;font-size:69.3333px;line-height:1.25;font-family:'Product Sans';-inkscape-font-specification:'Product Sans';letter-spacing:0px;word-spacing:0px;fill:#000080;fill-opacity:1;stroke:none;stroke-width:0.755132"
         id="path49"
         inkscape:connector-curvature="0" />
    </g>
    <g
       style="font-style:normal;font-weight:normal;font-size:50.608px;line-height:1.25;font-family:sans-serif;fill:#000080;fill-opacity:1;stroke:none;stroke-width:3.163"
       id="text43"
       aria-label="Sweden">
      <path
         id="path882"
         style="font-style:normal;font-variant:normal;font-weight:normal;font-stretch:normal;font-size:50.608px;font-family:'Product Sans';-inkscape-font-specification:'Product Sans';fill:#000080;fill-opacity:1;stroke-width:3.163"
         d="m 198.3485,74.188631 q 0,4.757152 -3.49196,7.641808 -3.54256,2.834048 -8.60336,2.834048 -4.50411,0 -7.94545,-2.631616 -3.44135,-2.631616 -4.75715,-7.186336 l 4.4535,-1.821888 q 0.45547,1.619456 1.2652,2.935264 0.80973,1.315808 1.8725,2.27736 1.11337,0.910944 2.42918,1.467632 1.31581,0.50608 2.78344,0.50608 3.1883,0 5.21262,-1.619456 2.02432,-1.670064 2.02432,-4.402896 0,-2.27736 -1.67006,-3.896816 -1.56885,-1.568848 -5.87053,-3.03648 -4.35229,-1.568848 -5.41505,-2.125536 -5.76932,-2.935265 -5.76932,-8.653969 0,-3.998032 3.18831,-6.83208 3.23891,-2.834048 7.94545,-2.834048 4.14986,0 7.18634,2.125536 3.03648,2.074928 4.04864,5.212624 l -4.35229,1.821888 q -0.60729,-2.02432 -2.42918,-3.340128 -1.77128,-1.366416 -4.35229,-1.366416 -2.73283,0 -4.60533,1.51824 -1.87249,1.417024 -1.87249,3.694384 0,1.872496 1.46763,3.238912 1.61945,1.366416 7.03451,3.238913 5.51627,1.872496 7.84424,4.605328 2.37858,2.682224 2.37858,6.629648 z" />
      <path
         id="path884"
         style="font-style:normal;font-variant:normal;font-weight:normal;font-stretch:normal;font-size:50.608px;font-family:'Product Sans';-inkscape-font-specification:'Product Sans';fill:#000080;fill-opacity:1;stroke-width:3.163"
         d="m 237.77055,59.056838 -7.99607,24.797921 h -4.75715 l -6.17417,-19.028608 -6.12357,19.028608 h -4.70655 l -7.99606,-24.797921 h 4.85837 l 5.51627,18.724961 h 0.0506 l 6.12357,-18.724961 h 4.80776 l 6.12356,18.724961 h 0.0506 l 5.46567,-18.724961 z" />
      <path
         id="path886"
         style="font-style:normal;font-variant:normal;font-weight:normal;font-stretch:normal;font-size:50.608px;font-family:'Product Sans';-inkscape-font-specification:'Product Sans';fill:#000080;fill-opacity:1;stroke-width:3.163"
         d="m 251.44182,84.664487 q -5.46566,0 -9.00822,-3.744992 -3.54256,-3.744992 -3.54256,-9.463696 0,-5.668096 3.44134,-9.413089 3.44135,-3.7956 8.80579,-3.7956 5.51628,0 8.75519,3.593168 3.28952,3.542561 3.28952,9.969777 l -0.0506,0.50608 h -19.48408 q 0.10122,3.643776 2.42918,5.870528 2.32797,2.226752 5.56688,2.226752 4.45351,0 6.98391,-4.453504 l 4.14986,2.02432 q -1.67007,3.137696 -4.65594,4.908976 -2.93527,1.77128 -6.68026,1.77128 z m -7.43937,-16.19456 h 14.22084 q -0.20243,-2.581008 -2.12553,-4.251072 -1.8725,-1.720673 -5.0608,-1.720673 -2.63162,0 -4.55472,1.619457 -1.8725,1.619456 -2.47979,4.352288 z" />
      <path
         id="path888"
         style="font-style:normal;font-variant:normal;font-weight:normal;font-stretch:normal;font-size:50.608px;font-family:'Product Sans';-inkscape-font-specification:'Product Sans';fill:#000080;fill-opacity:1;stroke-width:3.163"
         d="m 278.82155,80.413415 q 3.44134,0 5.61748,-2.479792 2.27736,-2.479792 2.27736,-6.477824 0,-3.896816 -2.27736,-6.427216 -2.22675,-2.530401 -5.61748,-2.530401 -3.34013,0 -5.61749,2.530401 -2.27736,2.5304 -2.27736,6.427216 0,3.947424 2.27736,6.427216 2.27736,2.5304 5.61749,2.5304 z m -0.75912,4.251072 q -4.85837,0 -8.35032,-3.846208 -3.44135,-3.896816 -3.44135,-9.36248 0,-5.465664 3.44135,-9.362481 3.49195,-3.846208 8.35032,-3.846208 2.73283,0 4.95958,1.163984 2.27736,1.163984 3.49195,3.087088 h 0.20243 l -0.20243,-3.441344 V 47.61943 h 4.65594 v 36.235329 h -4.45351 v -3.441344 h -0.20243 q -1.21459,1.923104 -3.49195,3.087088 -2.22675,1.163984 -4.95958,1.163984 z" />
      <path
         id="path890"
         style="font-style:normal;font-variant:normal;font-weight:normal;font-stretch:normal;font-size:50.608px;font-family:'Product Sans';-inkscape-font-specification:'Product Sans';fill:#000080;fill-opacity:1;stroke-width:3.163"
         d="m 307.68392,84.664487 q -5.46567,0 -9.00823,-3.744992 -3.54256,-3.744992 -3.54256,-9.463696 0,-5.668096 3.44135,-9.413089 3.44134,-3.7956 8.80579,-3.7956 5.51627,0 8.75518,3.593168 3.28953,3.542561 3.28953,9.969777 l -0.0506,0.50608 h -19.48408 q 0.10121,3.643776 2.42918,5.870528 2.32797,2.226752 5.56688,2.226752 4.4535,0 6.9839,-4.453504 l 4.14986,2.02432 q -1.67006,3.137696 -4.65594,4.908976 -2.93526,1.77128 -6.68025,1.77128 z m -7.43938,-16.19456 h 14.22085 q -0.20243,-2.581008 -2.12554,-4.251072 -1.87249,-1.720673 -5.0608,-1.720673 -2.63161,0 -4.55472,1.619457 -1.87249,1.619456 -2.47979,4.352288 z" />
      <path
         id="path892"
         style="font-style:normal;font-variant:normal;font-weight:normal;font-stretch:normal;font-size:50.608px;font-family:'Product Sans';-inkscape-font-specification:'Product Sans';fill:#000080;fill-opacity:1;stroke-width:3.163"
         d="m 323.63335,59.056838 h 4.4535 v 3.441344 h 0.20244 q 1.06276,-1.821888 3.23891,-3.03648 2.22675,-1.214592 4.60533,-1.214592 4.55472,0 6.9839,2.631616 2.47979,2.581009 2.47979,7.388769 v 15.587264 h -4.65593 V 68.571143 q -0.15183,-6.072961 -6.12357,-6.072961 -2.78344,0 -4.65594,2.277361 -1.87249,2.226752 -1.87249,5.364448 v 13.714768 h -4.65594 z" />
    </g>
  </g>
</svg>
