<?xml version="1.0" encoding="UTF-8" standalone="no"?>
<svg
   xmlns:dc="http://purl.org/dc/elements/1.1/"
   xmlns:cc="http://creativecommons.org/ns#"
   xmlns:rdf="http://www.w3.org/1999/02/22-rdf-syntax-ns#"
   xmlns:svg="http://www.w3.org/2000/svg"
   xmlns="http://www.w3.org/2000/svg"
   xmlns:sodipodi="http://sodipodi.sourceforge.net/DTD/sodipodi-0.dtd"
   xmlns:inkscape="http://www.inkscape.org/namespaces/inkscape"
   version="1.1"
   id="svg833"
   xml:space="preserve"
   width="822.35809"
   height="192.20267"
   viewBox="0 0 822.35809 192.20266"
   sodipodi:docname="logo-monochrome.svg"
   inkscape:version="1.0 (4035a4f, 2020-05-01)"
   inkscape:export-filename="/Users/ncorti/Desktop/favicon.png"
   inkscape:export-xdpi="1371.4301"
   inkscape:export-ydpi="1371.4301"><metadata
     id="metadata839"><rdf:RDF><cc:Work
         rdf:about=""><dc:format>image/svg+xml</dc:format><dc:type
           rdf:resource="http://purl.org/dc/dcmitype/StillImage" /><dc:title /></cc:Work></rdf:RDF></metadata><defs
     id="defs837"><clipPath
       clipPathUnits="userSpaceOnUse"
       id="clipPath849"><path
         d="M 0,304.833 H 611.827 V 0 H 0 Z"
         id="path847" /></clipPath><clipPath
       clipPathUnits="userSpaceOnUse"
       id="clipPath889"><path
         d="M 0,304.833 H 611.827 V 0 H 0 Z"
         id="path887" /></clipPath></defs><sodipodi:namedview
     inkscape:document-rotation="0"
     pagecolor="#ffffff"
     bordercolor="#666666"
     borderopacity="1"
     objecttolerance="10"
     gridtolerance="10"
     guidetolerance="10"
     inkscape:pageopacity="0"
     inkscape:pageshadow="2"
     inkscape:window-width="1920"
     inkscape:window-height="1035"
     id="namedview835"
     showgrid="false"
     fit-margin-top="0"
     fit-margin-left="0"
     fit-margin-right="0"
     fit-margin-bottom="0"
     inkscape:zoom="0.81885891"
     inkscape:cx="533.77679"
     inkscape:cy="98.95069"
     inkscape:window-x="0"
     inkscape:window-y="23"
     inkscape:window-maximized="1"
     inkscape:current-layer="g841"
     inkscape:pagecheckerboard="true" /><g
     id="g841"
     inkscape:groupmode="layer"
     inkscape:label="Copy of GDG_DevFest_Logo"
     transform="matrix(1.3333333,0,0,-1.3333333,169.85574,256.98786)"><g
       id="g843"
       style="fill:#004b87;fill-opacity:1"><g
         id="g845"
         clip-path="url(#clipPath849)"
         style="fill:#004b87;fill-opacity:1"><g
           id="g851"
           transform="translate(122.4563,136.5659)"
           style="fill:#004b87;fill-opacity:1"><path
             d="m 0,0 c 0.84,-2.311 2.047,-4.289 3.622,-5.933 1.575,-1.645 3.413,-2.905 5.513,-3.78 2.099,-0.876 4.41,-1.312 6.929,-1.312 2.451,0 4.726,0.455 6.826,1.365 2.1,0.909 3.937,2.205 5.512,3.885 1.576,1.68 2.818,3.691 3.728,6.038 0.909,2.343 1.365,4.951 1.365,7.822 v 1.26 c 0,2.799 -0.456,5.371 -1.365,7.717 -0.91,2.345 -2.152,4.358 -3.728,6.038 -1.575,1.68 -3.43,2.993 -5.565,3.937 -2.136,0.945 -4.394,1.418 -6.773,1.418 -2.451,0 -4.743,-0.456 -6.876,-1.365 C 7.051,26.18 5.197,24.885 3.622,23.205 2.047,21.524 0.821,19.53 -0.053,17.22 -0.929,14.91 -1.365,12.354 -1.365,9.555 V 7.875 C -1.365,4.935 -0.911,2.31 0,0 m -9.766,9.555 c 0,4.2 0.665,7.962 1.995,11.288 1.33,3.323 3.115,6.124 5.356,8.399 2.239,2.275 4.864,4.007 7.875,5.197 3.009,1.19 6.195,1.786 9.555,1.786 3.57,0 6.912,-0.787 10.027,-2.363 3.114,-1.575 5.513,-4.008 7.192,-7.298 h 1.261 v 29.611 h 8.19 v -73.5 h -8.19 v 7.98 h -1.261 c -0.839,-1.611 -1.907,-3.01 -3.202,-4.2 -1.296,-1.191 -2.695,-2.171 -4.2,-2.94 -1.506,-0.771 -3.098,-1.347 -4.777,-1.733 -1.68,-0.384 -3.291,-0.577 -4.83,-0.577 -3.501,0 -6.756,0.596 -9.765,1.785 -3.011,1.19 -5.653,2.904 -7.928,5.145 -2.275,2.239 -4.06,5.022 -5.354,8.347 -1.297,3.325 -1.944,7.122 -1.944,11.393 z"
             style="fill:#004b87;fill-opacity:1;fill-rule:nonzero;stroke:none"
             id="path853" /></g><g
           id="g855"
           transform="translate(181.886,150.3207)"
           style="fill:#004b87;fill-opacity:1"><path
             d="m 0,0 h 33.6 c -0.141,2.239 -0.683,4.269 -1.627,6.09 -0.946,1.819 -2.171,3.36 -3.676,4.62 -1.506,1.26 -3.221,2.239 -5.145,2.94 -1.925,0.699 -3.903,1.05 -5.932,1.05 -2.31,0 -4.463,-0.368 -6.458,-1.102 C 8.768,12.862 7.017,11.829 5.512,10.5 4.006,9.169 2.782,7.612 1.837,5.827 0.893,4.042 0.278,2.1 0,0 m -8.4,-5.67 v 2.52 c 0,3.639 0.646,7.035 1.942,10.185 1.295,3.15 3.098,5.861 5.407,8.138 2.311,2.273 5.023,4.058 8.138,5.354 3.114,1.295 6.492,1.943 10.133,1.943 4.268,0 7.962,-0.787 11.077,-2.363 3.114,-1.575 5.67,-3.517 7.665,-5.827 1.995,-2.31 3.465,-4.83 4.41,-7.56 0.945,-2.73 1.418,-5.25 1.418,-7.56 v -6.721 h -42 c 0.21,-5.18 1.819,-9.344 4.83,-12.494 3.009,-3.15 7.208,-4.725 12.6,-4.725 2.449,0 4.584,0.279 6.405,0.84 1.819,0.559 3.376,1.329 4.672,2.31 1.295,0.98 2.345,2.116 3.15,3.412 0.804,1.295 1.452,2.678 1.943,4.148 l 7.77,-2.1 c -1.471,-4.83 -4.183,-8.767 -8.138,-11.812 -3.956,-3.045 -9.293,-4.568 -16.012,-4.568 -3.711,0 -7.124,0.648 -10.238,1.943 -3.116,1.294 -5.793,3.131 -8.033,5.512 -2.24,2.379 -3.989,5.214 -5.25,8.505 -1.26,3.289 -1.889,6.93 -1.889,10.92"
             style="fill:#004b87;fill-opacity:1;fill-rule:nonzero;stroke:none"
             id="path857" /></g><g
           id="g859"
           transform="translate(237.8509,171.3207)"
           style="fill:#004b87;fill-opacity:1"><path
             d="m 0,0 15.96,-48.3 h 1.26 L 33.18,0 h 9.66 L 24.675,-52.08 H 8.505 L -9.66,0 Z"
             style="fill:#004b87;fill-opacity:1;fill-rule:nonzero;stroke:none"
             id="path861" /></g><g
           id="g863"
           transform="translate(303.6068,171.3207)"
           style="fill:#004b87;fill-opacity:1"><path
             d="m 0,0 v 13.229 c 0,2.379 0.752,4.34 2.258,5.881 1.505,1.538 3.447,2.31 5.827,2.31 h 20.58 V 13.86 H 11.025 C 9.136,13.86 8.19,12.81 8.19,10.71 V 0 H 29.926 V -7.561 H 8.19 V -52.08 H 0 V -7.561 H -16.064 V 0 Z"
             style="fill:#004b87;fill-opacity:1;fill-rule:nonzero;stroke:none"
             id="path865" /></g><g
           id="g867"
           transform="translate(344.5794,150.3207)"
           style="fill:#004b87;fill-opacity:1"><path
             d="m 0,0 h 33.601 c -0.142,2.239 -0.683,4.269 -1.628,6.09 -0.946,1.819 -2.171,3.36 -3.675,4.62 -1.506,1.26 -3.221,2.239 -5.146,2.94 -1.925,0.699 -3.902,1.05 -5.932,1.05 -2.31,0 -4.462,-0.368 -6.457,-1.102 C 8.768,12.862 7.018,11.829 5.513,10.5 4.007,9.169 2.782,7.612 1.838,5.827 0.893,4.042 0.279,2.1 0,0 m -8.399,-5.67 v 2.52 c 0,3.639 0.645,7.035 1.942,10.185 1.294,3.15 3.098,5.861 5.407,8.138 2.31,2.273 5.022,4.058 8.138,5.354 3.113,1.295 6.492,1.943 10.132,1.943 4.269,0 7.962,-0.787 11.078,-2.363 3.113,-1.575 5.67,-3.517 7.665,-5.827 1.995,-2.31 3.465,-4.83 4.41,-7.56 0.944,-2.73 1.417,-5.25 1.417,-7.56 v -6.721 h -42 c 0.21,-5.18 1.819,-9.344 4.83,-12.494 3.009,-3.15 7.209,-4.725 12.6,-4.725 2.45,0 4.584,0.279 6.405,0.84 1.819,0.559 3.377,1.329 4.673,2.31 1.294,0.98 2.345,2.116 3.149,3.412 0.805,1.295 1.452,2.678 1.944,4.148 l 7.769,-2.1 C 39.69,-21 36.977,-24.937 33.022,-27.982 29.067,-31.027 23.73,-32.55 17.01,-32.55 c -3.711,0 -7.123,0.648 -10.238,1.943 -3.115,1.294 -5.793,3.131 -8.032,5.512 -2.241,2.379 -3.99,5.214 -5.25,8.505 -1.26,3.289 -1.889,6.93 -1.889,10.92"
             style="fill:#004b87;fill-opacity:1;fill-rule:nonzero;stroke:none"
             id="path869" /></g><g
           id="g871"
           transform="translate(402.6409,138.561)"
           style="fill:#004b87;fill-opacity:1"><path
             d="m 0,0 c 0.35,-3.99 1.89,-7.192 4.62,-9.607 2.73,-2.415 6.369,-3.623 10.92,-3.623 3.849,0 6.946,0.751 9.292,2.257 2.345,1.504 3.518,3.622 3.518,6.353 0,2.939 -1.155,5.04 -3.465,6.3 -2.31,1.259 -6.056,2.063 -11.235,2.415 -6.021,0.42 -10.641,1.819 -13.86,4.2 -3.221,2.379 -4.83,5.844 -4.83,10.394 v 0.63 c 0,2.451 0.525,4.603 1.575,6.458 1.05,1.854 2.468,3.412 4.252,4.672 1.785,1.261 3.797,2.205 6.038,2.836 2.239,0.63 4.584,0.944 7.035,0.944 3.429,0 6.44,-0.472 9.03,-1.416 2.589,-0.946 4.759,-2.171 6.51,-3.676 1.748,-1.506 3.097,-3.239 4.042,-5.198 0.946,-1.96 1.557,-3.92 1.838,-5.879 l -7.77,-1.89 c -0.351,3.359 -1.698,5.984 -4.042,7.875 -2.347,1.89 -5.408,2.835 -9.188,2.835 -1.47,0 -2.887,-0.157 -4.253,-0.473 C 8.662,26.092 7.455,25.62 6.405,24.989 5.355,24.359 4.515,23.572 3.885,22.627 3.255,21.683 2.94,20.58 2.94,19.319 2.94,16.8 4.007,14.874 6.143,13.545 8.277,12.214 12.18,11.34 17.85,10.92 23.94,10.429 28.576,8.978 31.763,6.562 34.947,4.147 36.54,0.63 36.54,-3.99 v -0.63 c 0,-2.521 -0.509,-4.777 -1.522,-6.773 -1.016,-1.995 -2.415,-3.693 -4.201,-5.092 -1.785,-1.402 -3.955,-2.468 -6.509,-3.202 -2.557,-0.736 -5.339,-1.103 -8.348,-1.103 -4.061,0 -7.544,0.543 -10.447,1.627 -2.906,1.085 -5.321,2.52 -7.245,4.306 -1.926,1.784 -3.378,3.814 -4.358,6.089 -0.981,2.274 -1.541,4.568 -1.68,6.877 z"
             style="fill:#004b87;fill-opacity:1;fill-rule:nonzero;stroke:none"
             id="path873" /></g><g
           id="g875"
           transform="translate(444.6478,171.3207)"
           style="fill:#004b87;fill-opacity:1"><path
             d="m 0,0 h 16.38 v 21.42 h 8.189 V 0 h 20.16 V -7.561 H 24.569 V -41.37 c 0,-2.1 0.946,-3.151 2.835,-3.151 H 42.21 V -52.08 H 24.465 c -2.381,0 -4.323,0.769 -5.828,2.309 -1.506,1.54 -2.257,3.5 -2.257,5.881 V -7.561 H 0 Z"
             style="fill:#004b87;fill-opacity:1;fill-rule:nonzero;stroke:none"
             id="path877" /></g></g></g><g
       style="font-variant:normal;font-weight:normal;font-stretch:normal;font-size:56px;line-height:0;font-family:'Space Mono';-inkscape-font-specification:SpaceMono-Regular;writing-mode:lr-tb;fill:#004b87;fill-opacity:1;fill-rule:nonzero;stroke:none"
       id="text881"
       transform="scale(1,-1)"
       aria-label="Sweden"><path
         id="path100"
         style="font-size:56px;fill:#004b87;fill-opacity:1"
         d="m 150.24857,-78.249095 q 0,-1.904 -0.784,-3.36 -0.728,-1.456 -2.016,-2.408 -1.288,-0.952 -2.968,-1.456 -1.68,-0.504 -3.528,-0.504 -1.624,0 -3.08,0.448 -1.456,0.392 -2.632,1.176 -1.12,0.784 -1.792,1.96 -0.672,1.12 -0.672,2.632 v 0.336 q 0,1.624 0.672,2.8 0.672,1.12 1.96,1.96 1.344,0.784 3.304,1.344 1.96,0.504 4.592,0.896 6.16,0.952 9.072,3.64 2.912,2.632 2.912,7.112 v 0.672 q 0,2.52 -0.896,4.648 -0.84,2.072 -2.576,3.584 -1.68,1.512 -4.2,2.352 -2.52,0.84 -5.824,0.84 -3.752,0 -6.664,-1.064 -2.856,-1.12 -4.816,-3.024 -1.904,-1.96 -2.912,-4.536 -1.008,-2.632 -1.008,-5.712 v -1.68 h 4.704 v 1.344 q 0,5.152 2.8,7.728 2.856,2.576 7.896,2.576 4.368,0 6.552,-1.904 2.24,-1.96 2.24,-5.152 v -0.336 q 0,-3.08 -2.296,-4.704 -2.24,-1.624 -7.336,-2.352 -2.968,-0.392 -5.376,-1.176 -2.352,-0.84 -4.032,-2.128 -1.68,-1.344 -2.576,-3.192 -0.896,-1.848 -0.896,-4.368 v -0.672 q 0,-2.296 0.952,-4.2 0.952,-1.904 2.632,-3.304 1.736,-1.4 4.088,-2.128 2.408,-0.784 5.264,-0.784 3.304,0 5.88,0.952 2.632,0.952 4.424,2.576 1.792,1.568 2.688,3.752 0.952,2.128 0.952,4.48 v 2.352 h -4.704 z" /><path
         id="path102"
         style="font-size:56px;fill:#004b87;fill-opacity:1"
         d="m 187.00294,-50.361095 h -8.064 l -3.36,-25.76 h -0.672 l -3.36,25.76 h -8.064 l -4.368,-27.776 h 4.48 l 3.696,25.76 h 0.672 l 3.248,-25.76 h 8.064 l 3.248,25.76 h 0.672 l 3.696,-25.76 h 4.48 z" /><path
         id="path104"
         style="font-size:56px;fill:#004b87;fill-opacity:1"
         d="m 200.40532,-62.905095 q 0.168,4.144 2.576,6.664 2.408,2.52 6.72,2.52 1.96,0 3.416,-0.448 1.456,-0.448 2.464,-1.232 1.064,-0.784 1.68,-1.792 0.672,-1.064 1.064,-2.24 l 4.144,1.12 q -1.176,3.864 -4.368,6.328 -3.136,2.408 -8.512,2.408 -2.968,0 -5.488,-1.008 -2.464,-1.064 -4.256,-2.968 -1.792,-1.904 -2.8,-4.536 -1.008,-2.632 -1.008,-5.824 v -1.344 q 0,-2.912 1.008,-5.432 1.064,-2.52 2.912,-4.312 1.848,-1.848 4.312,-2.856 2.52,-1.064 5.432,-1.064 3.416,0 5.88,1.288 2.52,1.232 4.088,3.08 1.624,1.848 2.352,4.032 0.784,2.184 0.784,4.032 v 3.584 z m 9.296,-11.872 q -1.848,0 -3.472,0.616 -1.568,0.56 -2.8,1.624 -1.176,1.064 -1.96,2.52 -0.728,1.4 -0.952,3.08 h 17.92 q -0.112,-1.792 -0.896,-3.248 -0.728,-1.456 -1.96,-2.464 -1.176,-1.008 -2.744,-1.568 -1.512,-0.56 -3.136,-0.56 z" /><path
         id="path106"
         style="font-size:56px;fill:#004b87;fill-opacity:1"
         d="m 252.95169,-54.617095 h -0.672 q -0.672,1.288 -1.736,2.24 -1.008,0.952 -2.24,1.568 -1.176,0.616 -2.52,0.896 -1.344,0.336 -2.576,0.336 -2.8,0 -5.208,-0.952 -2.408,-0.952 -4.256,-2.744 -1.792,-1.792 -2.856,-4.424 -1.008,-2.688 -1.008,-6.104 v -0.896 q 0,-3.36 1.064,-5.992 1.064,-2.688 2.856,-4.48 1.792,-1.848 4.2,-2.8 2.408,-0.952 5.096,-0.952 2.856,0 5.32,1.288 2.52,1.232 3.864,3.864 h 0.672 v -15.792 h 4.368 v 39.2 h -4.368 z m -9.296,0.896 q 1.96,0 3.64,-0.728 1.68,-0.728 2.912,-2.072 1.288,-1.344 2.016,-3.192 0.728,-1.904 0.728,-4.2 v -0.672 q 0,-2.24 -0.728,-4.088 -0.728,-1.904 -2.016,-3.248 -1.232,-1.344 -2.968,-2.072 -1.68,-0.784 -3.584,-0.784 -1.96,0 -3.696,0.728 -1.68,0.728 -2.968,2.072 -1.232,1.344 -1.96,3.192 -0.672,1.848 -0.672,4.088 v 0.896 q 0,2.352 0.672,4.2 0.728,1.848 1.96,3.192 1.288,1.288 2.968,2.016 1.68,0.672 3.696,0.672 z" /><path
         id="path108"
         style="font-size:56px;fill:#004b87;fill-opacity:1"
         d="m 268.87407,-62.905095 q 0.168,4.144 2.576,6.664 2.408,2.52 6.72,2.52 1.96,0 3.416,-0.448 1.456,-0.448 2.464,-1.232 1.064,-0.784 1.68,-1.792 0.672,-1.064 1.064,-2.24 l 4.144,1.12 q -1.176,3.864 -4.368,6.328 -3.136,2.408 -8.512,2.408 -2.968,0 -5.488,-1.008 -2.464,-1.064 -4.256,-2.968 -1.792,-1.904 -2.8,-4.536 -1.008,-2.632 -1.008,-5.824 v -1.344 q 0,-2.912 1.008,-5.432 1.064,-2.52 2.912,-4.312 1.848,-1.848 4.312,-2.856 2.52,-1.064 5.432,-1.064 3.416,0 5.88,1.288 2.52,1.232 4.088,3.08 1.624,1.848 2.352,4.032 0.784,2.184 0.784,4.032 v 3.584 z m 9.296,-11.872 q -1.848,0 -3.472,0.616 -1.568,0.56 -2.8,1.624 -1.176,1.064 -1.96,2.52 -0.728,1.4 -0.952,3.08 h 17.92 q -0.112,-1.792 -0.896,-3.248 -0.728,-1.456 -1.96,-2.464 -1.176,-1.008 -2.744,-1.568 -1.512,-0.56 -3.136,-0.56 z" /><path
         id="path110"
         style="font-size:56px;fill:#004b87;fill-opacity:1"
         d="m 304.28444,-50.361095 h -4.368 v -27.776 h 4.368 v 4.704 h 0.672 q 2.576,-5.488 8.96,-5.488 4.816,0 7.672,3.024 2.856,2.968 2.856,8.96 v 16.576 h -4.368 v -15.68 q 0,-4.368 -1.96,-6.552 -1.96,-2.184 -5.32,-2.184 -3.976,0 -6.272,2.744 -2.24,2.688 -2.24,7.224 z" /></g><g
       id="g988"
       transform="translate(-46.711345,-0.42500406)"
       style="fill:#004b87;fill-opacity:1"><g
         transform="translate(396.0296,73.2143)"
         id="g891"
         style="fill:#004b87;fill-opacity:1"><path
           id="path893"
           style="fill:#004b87;fill-opacity:1;fill-rule:nonzero;stroke:none"
           d="m 0,0 c 0,1.6 0.267,3.133 0.8,4.6 0.533,1.466 1.316,2.766 2.349,3.9 1.034,1.133 2.317,2.033 3.851,2.7 1.532,0.666 3.3,1 5.3,1 2.033,0 3.8,-0.308 5.3,-0.925 1.5,-0.617 2.75,-1.433 3.75,-2.45 1,-1.017 1.741,-2.167 2.225,-3.45 C 24.058,4.092 24.3,2.783 24.3,1.45 v -0.9 c 0,-2.667 -0.834,-4.943 -2.5,-6.825 C 20.133,-8.158 17.466,-9.5 13.8,-10.3 10.6,-11 8.25,-11.925 6.75,-13.075 5.25,-14.225 4.5,-15.9 4.5,-18.1 v -1.5 H 24 v -3.9 H 0.3 v 6 c 0,1.6 0.266,2.991 0.8,4.175 0.533,1.182 1.292,2.2 2.275,3.05 0.982,0.85 2.175,1.558 3.575,2.125 1.4,0.566 2.983,1.05 4.75,1.45 2.966,0.667 5.108,1.616 6.425,2.85 1.316,1.233 1.975,2.75 1.975,4.55 V 1 c 0,0.9 -0.15,1.783 -0.451,2.65 C 19.35,4.517 18.883,5.3 18.25,6 17.616,6.7 16.808,7.258 15.825,7.675 14.841,8.092 13.666,8.3 12.3,8.3 9.732,8.3 7.741,7.517 6.325,5.95 4.907,4.383 4.2,2.3 4.2,-0.3 V -2.5 H 0 Z" /></g><g
         transform="translate(430.6292,70.8139)"
         id="g895"
         style="fill:#004b87;fill-opacity:1"><path
           id="path897"
           style="fill:#004b87;fill-opacity:1;fill-rule:nonzero;stroke:none"
           d="m 0,0 v -7.199 c 0,-3.434 0.675,-6.093 2.024,-7.976 C 3.375,-17.059 5.399,-18 8.1,-18 c 2.7,0 4.725,0.941 6.075,2.825 1.349,1.883 2.025,4.542 2.025,7.976 V 0 c 0,1.601 -0.168,3.059 -0.5,4.375 -0.334,1.316 -0.843,2.45 -1.525,3.4 C 13.491,8.726 12.642,9.467 11.625,10 10.607,10.533 9.433,10.801 8.1,10.801 6.732,10.801 5.55,10.533 4.55,10 3.55,9.467 2.708,8.726 2.024,7.775 1.341,6.825 0.833,5.691 0.5,4.375 0.166,3.059 0,1.601 0,0 m -0.95,10.851 c 2.166,2.5 5.182,3.75 9.05,3.75 3.866,0 6.882,-1.25 9.049,-3.75 2.167,-2.5 3.25,-6.018 3.25,-10.55 V -7.5 c 0,-4.667 -1.083,-8.217 -3.25,-10.649 -2.167,-2.434 -5.183,-3.651 -9.049,-3.651 -3.868,0 -6.884,1.217 -9.05,3.651 -2.167,2.432 -3.25,5.982 -3.25,10.649 v 7.801 c 0,4.532 1.083,8.05 3.25,10.55" /></g><g
         transform="translate(457.2288,73.2143)"
         id="g899"
         style="fill:#004b87;fill-opacity:1"><path
           id="path901"
           style="fill:#004b87;fill-opacity:1;fill-rule:nonzero;stroke:none"
           d="m 0,0 c 0,1.6 0.267,3.133 0.8,4.6 0.533,1.466 1.316,2.766 2.349,3.9 1.034,1.133 2.317,2.033 3.851,2.7 1.532,0.666 3.3,1 5.3,1 2.033,0 3.8,-0.308 5.3,-0.925 1.5,-0.617 2.75,-1.433 3.75,-2.45 1,-1.017 1.741,-2.167 2.225,-3.45 C 24.058,4.092 24.3,2.783 24.3,1.45 v -0.9 c 0,-2.667 -0.834,-4.943 -2.5,-6.825 C 20.133,-8.158 17.466,-9.5 13.8,-10.3 10.6,-11 8.25,-11.925 6.75,-13.075 5.25,-14.225 4.5,-15.9 4.5,-18.1 v -1.5 H 24 v -3.9 H 0.3 v 6 c 0,1.6 0.266,2.991 0.8,4.175 0.533,1.182 1.292,2.2 2.275,3.05 0.982,0.85 2.175,1.558 3.575,2.125 1.4,0.566 2.983,1.05 4.75,1.45 2.966,0.667 5.108,1.616 6.425,2.85 1.316,1.233 1.975,2.75 1.975,4.55 V 1 c 0,0.9 -0.15,1.783 -0.451,2.65 C 19.35,4.517 18.883,5.3 18.25,6 17.616,6.7 16.808,7.258 15.825,7.675 14.841,8.092 13.666,8.3 12.3,8.3 9.732,8.3 7.741,7.517 6.325,5.95 4.907,4.383 4.2,2.3 4.2,-0.3 V -2.5 H 0 Z" /></g><g
         transform="translate(491.8284,70.8139)"
         id="g903"
         style="fill:#004b87;fill-opacity:1"><path
           id="path905"
           style="fill:#004b87;fill-opacity:1;fill-rule:nonzero;stroke:none"
           d="m 0,0 v -7.199 c 0,-3.434 0.675,-6.093 2.024,-7.976 C 3.375,-17.059 5.399,-18 8.1,-18 c 2.7,0 4.725,0.941 6.075,2.825 1.349,1.883 2.025,4.542 2.025,7.976 V 0 c 0,1.601 -0.168,3.059 -0.5,4.375 -0.334,1.316 -0.843,2.45 -1.525,3.4 C 13.491,8.726 12.642,9.467 11.625,10 10.607,10.533 9.433,10.801 8.1,10.801 6.732,10.801 5.55,10.533 4.55,10 3.55,9.467 2.708,8.726 2.024,7.775 1.341,6.825 0.833,5.691 0.5,4.375 0.166,3.059 0,1.601 0,0 m -0.95,10.851 c 2.166,2.5 5.182,3.75 9.05,3.75 3.866,0 6.882,-1.25 9.049,-3.75 2.167,-2.5 3.25,-6.018 3.25,-10.55 V -7.5 c 0,-4.667 -1.083,-8.217 -3.25,-10.649 -2.167,-2.434 -5.183,-3.651 -9.049,-3.651 -3.868,0 -6.884,1.217 -9.05,3.651 -2.167,2.432 -3.25,5.982 -3.25,10.649 v 7.801 c 0,4.532 1.083,8.05 3.25,10.55" /></g></g><g
       id="g1034"
       transform="matrix(2.9802969,0,0,2.9802969,-787.73447,-595.8855)"
       style="fill:#004b87;fill-opacity:1"><g
         transform="translate(237.9554,238.4028)"
         id="g907"
         style="fill:#004b87;fill-opacity:1"><path
           id="path909"
           style="fill:#004b87;fill-opacity:1;fill-rule:nonzero;stroke:none"
           d="m 0,0 11.176,6.453 c 2.631,1.519 3.532,4.882 2.013,7.512 -1.518,2.63 -4.881,3.532 -7.512,2.013 L -13.635,4.828 Z" /></g><g
         transform="translate(246.3772,221.8178)"
         id="g911"
         style="fill:#004b87;fill-opacity:1"><path
           id="path913"
           style="fill:#004b87;fill-opacity:1;fill-rule:nonzero;stroke:none"
           d="m 0,0 c 1.9,0 3.749,0.987 4.768,2.751 1.518,2.63 0.617,5.993 -2.014,7.512 l -19.312,11.15 c -2.63,1.52 -5.993,0.617 -7.512,-2.013 -1.519,-2.63 -0.617,-5.994 2.013,-7.512 L -2.745,0.738 C -1.879,0.238 -0.934,0 0,0" /></g><g
         transform="translate(265.5872,221.8178)"
         id="g915"
         style="fill:#004b87;fill-opacity:1"><path
           id="path917"
           style="fill:#004b87;fill-opacity:1;fill-rule:nonzero;stroke:none"
           d="M 0,0 C 0.934,0 1.879,0.238 2.745,0.738 L 22.057,11.888 8.595,16.815 -2.755,10.263 C -5.385,8.744 -6.286,5.381 -4.768,2.751 -3.749,0.987 -1.9,0 0,0" /></g><g
         transform="translate(284.889,232.9682)"
         id="g919"
         style="fill:#004b87;fill-opacity:1"><path
           id="path921"
           style="fill:#004b87;fill-opacity:1;fill-rule:nonzero;stroke:none"
           d="m 0,0 c 1.901,0 3.749,0.986 4.768,2.75 1.518,2.631 0.618,5.993 -2.013,7.513 l -19.312,11.149 c -2.63,1.519 -5.993,0.618 -7.512,-2.013 -1.519,-2.629 -0.618,-5.993 2.012,-7.511 L -2.744,0.737 C -1.878,0.237 -0.933,0 0,0" /></g></g></g></svg>
